<?xml version="1.0" encoding="utf-8"?>
<!-- Generator: Adobe Illustrator 16.0.4, SVG Export Plug-In . SVG Version: 6.00 Build 0)  -->
<!DOCTYPE svg PUBLIC "-//W3C//DTD SVG 1.1//EN" "http://www.w3.org/Graphics/SVG/1.1/DTD/svg11.dtd">
<svg version="1.1" id="Ebene_1" xmlns="http://www.w3.org/2000/svg" xmlns:xlink="http://www.w3.org/1999/xlink" x="0px" y="0px"
	 width="155.467px" height="132.888px" viewBox="0 0 155.467 132.888" enable-background="new 0 0 155.467 132.888"
	 xml:space="preserve">
<path fill="#CCCAC5" d="M76.617,68.447c-4.365-6.643-9.966-11.736-16.798-15.28l-39.48-19.548c-2.28-1.267-4.145-3.007-5.6-5.223
	c-1.456-2.213-2.185-4.713-2.185-7.497c0-2.149,0.445-4.143,1.331-5.978c0.883-1.832,2.089-3.445,3.606-4.842
	c3.289-2.655,6.929-4.777,10.914-6.36c3.986-1.58,8.192-2.37,12.624-2.37c6.832,0,13.002,1.678,18.507,5.03
	c4.839,2.949,8.723,6.754,11.655,11.414l0.949-1.092c-3.289-5.049-7.646-9.093-13.081-12.126C53.617,1.538,47.607,0.02,41.029,0.02
	c-5.193,0-10.032,0.98-14.52,2.941c-4.495,1.966-8.418,4.622-11.77,7.971c-3.355,3.356-6.012,7.312-7.973,11.866
	c-1.961,4.554-2.942,9.366-2.942,14.425c0,7.34,1.9,13.983,5.696,19.931c3.796,5.947,8.73,10.438,14.804,13.476l0.193,0.19
	l42.516,21.066c2.656,1.395,4.808,3.356,6.452,5.888s2.468,5.439,2.468,8.729c0,4.05-1.266,7.532-3.797,10.44
	c-3.672,4.432-8.193,7.97-13.569,10.629c-5.382,2.659-11.233,3.986-17.558,3.986c-4.936,0-9.617-0.854-14.045-2.562
	c-4.433-1.711-8.417-4.049-11.959-7.024c-3.544-2.97-6.518-6.484-8.923-10.534c-2.384-4.015-4.019-8.405-4.91-13.17l-0.085-0.044
	L0,99.494c0.586,2.799,1.44,5.521,2.589,8.148c2.216,5.062,5.22,9.461,9.015,13.192c3.8,3.735,8.226,6.676,13.288,8.825
	c5.06,2.154,10.442,3.229,16.137,3.229c5.819,0,11.292-1.106,16.417-3.323c5.126-2.211,9.587-5.219,13.383-9.016
	c3.796-3.796,6.8-8.225,9.016-13.288c2.212-5.058,3.323-10.498,3.323-16.323C83.168,82.588,80.985,75.092,76.617,68.447"/>
<path fill="#CCCAC5" d="M153.948,131.559c-1.772,0-2.975-0.761-3.607-2.278l-39.48-77.063c-0.254-0.758-0.38-1.262-0.38-1.518
	c0-0.503,0.189-1.074,0.572-1.71L145.421,0h-1.686L85.643,83.013c0.098,0.53,0.202,1.06,0.278,1.599l6.719-9.616
	c0.25-0.38,0.6-0.538,1.043-0.478c0.442,0.068,0.79,0.288,1.042,0.668l27.716,54.095c0.377,0.637,0.408,1.171,0.095,1.613
	c-0.315,0.446-0.792,0.665-1.424,0.665h-0.949h-1.709v1.329h37.014v-1.329H153.948z"/>
</svg>
